<svg width="68" height="68" viewBox="0 0 68 68" fill="none" xmlns="http://www.w3.org/2000/svg">
<path d="M41.0834 18.4167H49.5834M49.5834 18.4167H58.0834M49.5834 18.4167V26.9167M49.5834 18.4167V9.91675" stroke="#C4599F" stroke-width="3" stroke-linecap="round"/>
<path d="M7.08337 18.4166C7.08337 13.074 7.08337 10.4027 8.7431 8.74298C10.4028 7.08325 13.0741 7.08325 18.4167 7.08325C23.7593 7.08325 26.4306 7.08325 28.0903 8.74298C29.75 10.4027 29.75 13.074 29.75 18.4166C29.75 23.7592 29.75 26.4305 28.0903 28.0902C26.4306 29.7499 23.7593 29.7499 18.4167 29.7499C13.0741 29.7499 10.4028 29.7499 8.7431 28.0902C7.08337 26.4305 7.08337 23.7592 7.08337 18.4166Z" stroke="#F38435" stroke-width="3"/>
<path d="M38.25 49.5833C38.25 44.2407 38.25 41.5695 39.9097 39.9097C41.5695 38.25 44.2407 38.25 49.5833 38.25C54.9259 38.25 57.5972 38.25 59.2569 39.9097C60.9167 41.5695 60.9167 44.2407 60.9167 49.5833C60.9167 54.9259 60.9167 57.5972 59.2569 59.2569C57.5972 60.9167 54.9259 60.9167 49.5833 60.9167C44.2407 60.9167 41.5695 60.9167 39.9097 59.2569C38.25 57.5972 38.25 54.9259 38.25 49.5833Z" stroke="#F38435" stroke-width="3"/>
<path d="M7.08337 49.5833C7.08337 44.2407 7.08337 41.5695 8.7431 39.9097C10.4028 38.25 13.0741 38.25 18.4167 38.25C23.7593 38.25 26.4306 38.25 28.0903 39.9097C29.75 41.5695 29.75 44.2407 29.75 49.5833C29.75 54.9259 29.75 57.5972 28.0903 59.2569C26.4306 60.9167 23.7593 60.9167 18.4167 60.9167C13.0741 60.9167 10.4028 60.9167 8.7431 59.2569C7.08337 57.5972 7.08337 54.9259 7.08337 49.5833Z" stroke="#C4599F" stroke-width="3"/>
</svg>
