<svg width="68" height="68" viewBox="0 0 68 68" fill="none" xmlns="http://www.w3.org/2000/svg">
<path d="M59.5 62.3334V24.0834C59.5 20.1041 59.5 18.1145 58.545 16.6852C58.1315 16.0664 57.6003 15.5352 56.9815 15.1218C55.5523 14.1667 53.5626 14.1667 49.5833 14.1667" stroke="#F38435" stroke-width="3"/>
<path d="M8.5 62.3334V24.0834C8.5 20.1041 8.5 18.1145 9.45501 16.6852C9.86844 16.0664 10.3997 15.5352 11.0184 15.1218C12.4477 14.1667 14.4374 14.1667 18.4167 14.1667" stroke="#F38435" stroke-width="3"/>
<path d="M28.3333 34H39.6666" stroke="#F38435" stroke-width="3" stroke-linecap="round"/>
<path d="M15.5834 31.1667H19.8334" stroke="#F38435" stroke-width="3" stroke-linecap="round"/>
<path d="M15.5834 39.6667H19.8334" stroke="#F38435" stroke-width="3" stroke-linecap="round"/>
<path d="M48.1667 31.1667H52.4167" stroke="#F38435" stroke-width="3" stroke-linecap="round"/>
<path d="M48.1667 39.6667H52.4167" stroke="#F38435" stroke-width="3" stroke-linecap="round"/>
<path d="M15.5834 22.6667H19.8334" stroke="#F38435" stroke-width="3" stroke-linecap="round"/>
<path d="M48.1667 22.6667H52.4167" stroke="#F38435" stroke-width="3" stroke-linecap="round"/>
<path d="M62.3333 62.3333L5.66663 62.3333" stroke="#C4599F" stroke-width="3" stroke-linecap="round"/>
<path d="M48.1666 62.3334V17.0001C48.1666 11.6575 48.1666 8.9862 46.5069 7.32648C44.8472 5.66675 42.1759 5.66675 36.8333 5.66675H31.1666C25.8241 5.66675 23.1528 5.66675 21.493 7.32648C19.8333 8.9862 19.8333 11.6575 19.8333 17.0001V62.3334" stroke="#C4599F" stroke-width="3"/>
<path d="M28.3333 42.5H39.6666" stroke="#F38435" stroke-width="3" stroke-linecap="round"/>
<path d="M34 62.3333V53.8333" stroke="#C4599F" stroke-width="3" stroke-linecap="round"/>
<path d="M34 25.5001V14.1667" stroke="#C4599F" stroke-width="3" stroke-linecap="round" stroke-linejoin="round"/>
<path d="M39.6666 19.8333L28.3333 19.8333" stroke="#C4599F" stroke-width="3" stroke-linecap="round" stroke-linejoin="round"/>
</svg>
