<svg width="68" height="68" viewBox="0 0 68 68" fill="none" xmlns="http://www.w3.org/2000/svg">
<path d="M5.66663 34.0001C5.66663 20.6436 5.66663 13.9654 9.81595 9.81607C13.9653 5.66675 20.6435 5.66675 34 5.66675C47.3564 5.66675 54.0347 5.66675 58.184 9.81607C62.3333 13.9654 62.3333 20.6436 62.3333 34.0001C62.3333 47.3565 62.3333 54.0348 58.184 58.1841C54.0347 62.3334 47.3564 62.3334 34 62.3334C20.6435 62.3334 13.9653 62.3334 9.81595 58.1841C5.66663 54.0348 5.66663 47.3565 5.66663 34.0001Z" stroke="#F38435" stroke-width="3"/>
<path d="M17 44.7667L20.2381 48.1667L28.3333 39.6667" stroke="#C4599F" stroke-width="3" stroke-linecap="round" stroke-linejoin="round"/>
<path d="M17 24.9333L20.2381 28.3333L28.3333 19.8333" stroke="#C4599F" stroke-width="3" stroke-linecap="round" stroke-linejoin="round"/>
<path d="M36.8333 25.5H51" stroke="#C4599F" stroke-width="3" stroke-linecap="round"/>
<path d="M36.8333 45.3333H51" stroke="#C4599F" stroke-width="3" stroke-linecap="round"/>
</svg>
